<svg width="25" height="25" viewBox="0 0 25 25" fill="#666" xmlns="http://www.w3.org/2000/svg">
<g filter="url(#filter0_d)">
<path fill-rule="evenodd" clip-rule="evenodd" d="M17.458 12.044L21 15.586L19.586 17L16.044 13.458C14.782 14.421 13.21 15 11.5 15C7.35786 15 4 11.6421 4 7.5C4 3.35786 7.35786 0 11.5 0C15.6421 0 19 3.35786 19 7.5C19.0001 9.14309 18.4581 10.7403 17.458 12.044ZM11.5 2C8.467 2 6 4.467 6 7.5C6.00331 10.5362 8.4638 12.9967 11.5 13C14.532 13 17 10.532 17 7.5C17 4.467 14.532 2 11.5 2Z" fill="white"/>
</g>
<defs>
<filter id="filter0_d" x="0" y="0" width="25" height="25" filterUnits="userSpaceOnUse" color-interpolation-filters="sRGB">
<feFlood flood-opacity="0" result="BackgroundImageFix"/>
<feColorMatrix in="SourceAlpha" type="matrix" values="0 0 0 0 0 0 0 0 0 0 0 0 0 0 0 0 0 0 127 0"/>
<feOffset dy="4"/>
<feGaussianBlur stdDeviation="2"/>
<feColorMatrix type="matrix" values="0 0 0 0 0 0 0 0 0 0 0 0 0 0 0 0 0 0 0.25 0"/>
<feBlend mode="normal" in2="BackgroundImageFix" result="effect1_dropShadow"/>
<feBlend mode="normal" in="SourceGraphic" in2="effect1_dropShadow" result="shape"/>
</filter>
</defs>
</svg>
